<svg xmlns="http://www.w3.org/2000/svg" xmlns:xlink="http://www.w3.org/1999/xlink" width="500" zoomAndPan="magnify" viewBox="0 0 375 374.999991" height="500" preserveAspectRatio="xMidYMid meet" version="1.0"><defs><clipPath id="b5d9520f8b"><path d="M 111.394531 116.035156 L 277.894531 116.035156 L 277.894531 265.285156 L 111.394531 265.285156 Z M 111.394531 116.035156 " clip-rule="nonzero"/></clipPath><clipPath id="4296889fc5"><path d="M 92.636719 109.65625 L 266.636719 109.65625 L 266.636719 265.355469 L 92.636719 265.355469 Z M 92.636719 109.65625 " clip-rule="nonzero"/></clipPath></defs><g clip-path="url(#b5d9520f8b)"><path fill="#4a081b" d="M 262.835938 145.914062 L 262.835938 130.832031 L 247.753906 130.832031 L 247.753906 115.746094 L 217.585938 115.746094 L 217.585938 130.832031 L 202.503906 130.832031 L 202.503906 145.914062 L 187.101562 145.914062 L 187.101562 130.832031 L 172.019531 130.832031 L 172.019531 115.746094 L 141.855469 115.746094 L 141.855469 130.832031 L 126.769531 130.832031 L 126.769531 145.914062 L 111.6875 145.914062 L 111.6875 190.214844 L 126.769531 190.214844 L 126.769531 205.296875 L 141.855469 205.296875 L 141.855469 220.378906 L 156.9375 220.378906 L 156.9375 235.464844 L 172.019531 235.464844 L 172.019531 250.546875 L 187.101562 250.546875 L 187.101562 265.628906 L 202.503906 265.628906 L 202.503906 250.546875 L 217.585938 250.546875 L 217.585938 235.464844 L 232.667969 235.464844 L 232.667969 220.378906 L 247.753906 220.378906 L 247.753906 205.296875 L 262.835938 205.296875 L 262.835938 190.214844 L 277.917969 190.214844 L 277.917969 145.914062 Z M 262.835938 145.914062 " fill-opacity="1" fill-rule="nonzero"/></g><g clip-path="url(#4296889fc5)"><path fill="#aa677a" d="M 250.542969 140.808594 L 250.542969 125.082031 L 234.816406 125.082031 L 234.816406 109.355469 L 203.363281 109.355469 L 203.363281 125.082031 L 187.636719 125.082031 L 187.636719 140.808594 L 171.578125 140.808594 L 171.578125 125.082031 L 155.851562 125.082031 L 155.851562 109.355469 L 124.398438 109.355469 L 124.398438 125.082031 L 108.671875 125.082031 L 108.671875 140.808594 L 92.941406 140.808594 L 92.941406 187 L 108.671875 187 L 108.671875 202.726562 L 124.398438 202.726562 L 124.398438 218.453125 L 140.125 218.453125 L 140.125 234.183594 L 155.851562 234.183594 L 155.851562 249.910156 L 171.578125 249.910156 L 171.578125 265.636719 L 187.636719 265.636719 L 187.636719 249.910156 L 203.363281 249.910156 L 203.363281 234.183594 L 219.089844 234.183594 L 219.089844 218.453125 L 234.816406 218.453125 L 234.816406 202.726562 L 250.542969 202.726562 L 250.542969 187 L 266.269531 187 L 266.269531 140.808594 Z M 250.542969 140.808594 " fill-opacity="1" fill-rule="nonzero"/></g></svg>